<svg width="47" height="54" viewBox="0 0 47 54" fill="none" xmlns="http://www.w3.org/2000/svg">
<g clip-path="url(#clip0)">
<path d="M41.1626 10.3663C41.1197 10.106 40.9051 9.93255 40.6905 9.93255C40.4758 9.93255 36.6987 9.84581 36.6987 9.84581C36.6987 9.84581 33.5224 6.72292 33.222 6.4193C32.9215 6.11569 32.2777 6.20243 32.0631 6.28918C32.0631 6.28918 31.4621 6.46267 30.4749 6.76629C30.3032 6.20243 30.0457 5.55183 29.7023 4.85786C28.5863 2.68918 26.9124 1.5181 24.9379 1.5181C24.8092 1.5181 24.6804 1.5181 24.5087 1.56147C24.4658 1.47472 24.38 1.43135 24.337 1.3446C23.4786 0.390385 22.3626 -0.04335 21.032 2.35358e-05C18.4567 0.0867705 15.8813 1.95183 13.8211 5.29159C12.3617 7.63376 11.2457 10.5832 10.9023 12.882C7.94069 13.7928 5.88041 14.4434 5.83749 14.4868C4.33521 14.9639 4.29228 15.0073 4.12059 16.4386C3.99183 17.5229 0.0429688 48.1012 0.0429688 48.1012L32.8357 53.8265L47.043 50.2699C47 50.2265 41.2055 10.6265 41.1626 10.3663ZM28.8439 7.28677C28.0713 7.50364 27.2128 7.80725 26.3115 8.06749C26.3115 6.76629 26.1398 4.90123 25.5389 3.33978C27.4704 3.73014 28.4147 5.94219 28.8439 7.28677ZM24.5516 8.63135C22.8348 9.15183 20.9462 9.75906 19.0576 10.3229C19.5727 8.28436 20.6028 6.24581 21.8046 4.90123C22.2768 4.42412 22.9206 3.86026 23.6503 3.51328C24.4229 5.03135 24.5946 7.15665 24.5516 8.63135ZM21.0749 1.73496C21.6758 1.73496 22.1909 1.86508 22.6201 2.12532C21.9334 2.51569 21.2466 3.03617 20.6028 3.73014C18.9717 5.50846 17.727 8.28436 17.2119 10.9301C15.6667 11.4073 14.1215 11.8844 12.7051 12.3181C13.6064 8.15424 17.0832 1.86508 21.0749 1.73496Z" fill="#95BF47"/>
<path d="M40.6897 9.93251C40.4751 9.93251 36.6979 9.84577 36.6979 9.84577C36.6979 9.84577 33.5217 6.72287 33.2212 6.41926C33.0924 6.28914 32.9637 6.24577 32.792 6.20239V53.7831L46.9993 50.2265C46.9993 50.2265 41.2048 10.6265 41.1619 10.3229C41.1189 10.106 40.9043 9.93251 40.6897 9.93251Z" fill="#5E8E3E"/>
<path d="M24.8946 17.306L23.2636 23.5518C23.2636 23.5518 21.4179 22.6843 19.2289 22.8578C16.0097 23.0747 16.0097 25.1132 16.0097 25.6337C16.1814 28.4096 23.4353 29.0169 23.8645 35.5663C24.1649 40.7277 21.1604 44.241 16.8252 44.5012C11.5887 44.8482 8.71289 41.7253 8.71289 41.7253L9.82887 36.9542C9.82887 36.9542 12.7047 39.1663 15.0225 38.9928C16.5248 38.906 17.0828 37.6482 17.0398 36.7807C16.8252 33.1373 10.9019 33.3542 10.5156 27.3687C10.2152 22.3373 13.4773 17.2193 20.6882 16.7855C23.4782 16.5687 24.8946 17.306 24.8946 17.306Z" fill="white"/>
</g>
<defs>
<clipPath id="clip0">
<rect width="47" height="54" fill="white"/>
</clipPath>
</defs>
</svg>
