<svg width="28" height="28" viewBox="0 0 28 28" fill="none" xmlns="http://www.w3.org/2000/svg">
<path d="M13.9867 0.666626C6.62666 0.666626 0.666656 6.63996 0.666656 14C0.666656 21.36 6.62666 27.3333 13.9867 27.3333C21.36 27.3333 27.3333 21.36 27.3333 14C27.3333 6.63996 21.36 0.666626 13.9867 0.666626ZM23.2267 8.66663H19.2933C18.8667 6.99996 18.2533 5.39996 17.4533 3.91996C19.9067 4.75996 21.9467 6.46663 23.2267 8.66663ZM14 3.38663C15.1067 4.98663 15.9733 6.75996 16.5467 8.66663H11.4533C12.0267 6.75996 12.8933 4.98663 14 3.38663ZM3.67999 16.6666C3.46666 15.8133 3.33332 14.92 3.33332 14C3.33332 13.08 3.46666 12.1866 3.67999 11.3333H8.18666C8.07999 12.2133 7.99999 13.0933 7.99999 14C7.99999 14.9066 8.07999 15.7866 8.18666 16.6666H3.67999ZM4.77332 19.3333H8.70666C9.13332 21 9.74666 22.6 10.5467 24.08C8.09332 23.24 6.05332 21.5466 4.77332 19.3333ZM8.70666 8.66663H4.77332C6.05332 6.45329 8.09332 4.75996 10.5467 3.91996C9.74666 5.39996 9.13332 6.99996 8.70666 8.66663ZM14 24.6133C12.8933 23.0133 12.0267 21.24 11.4533 19.3333H16.5467C15.9733 21.24 15.1067 23.0133 14 24.6133ZM17.12 16.6666H10.88C10.76 15.7866 10.6667 14.9066 10.6667 14C10.6667 13.0933 10.76 12.2 10.88 11.3333H17.12C17.24 12.2 17.3333 13.0933 17.3333 14C17.3333 14.9066 17.24 15.7866 17.12 16.6666ZM17.4533 24.08C18.2533 22.6 18.8667 21 19.2933 19.3333H23.2267C21.9467 21.5333 19.9067 23.24 17.4533 24.08ZM19.8133 16.6666C19.92 15.7866 20 14.9066 20 14C20 13.0933 19.92 12.2133 19.8133 11.3333H24.32C24.5333 12.1866 24.6667 13.08 24.6667 14C24.6667 14.92 24.5333 15.8133 24.32 16.6666H19.8133Z" fill="white"/>
</svg>
