<svg width="180" height="60" xmlns="http://www.w3.org/2000/svg">

 <g>
  <title>background</title>
  <rect fill="none" id="canvas_background" height="62" width="182" y="-1" x="-1"/>
 </g>
 <g>
  <title>Layer 1</title>
  <path stroke="null" id="svg_1" d="m24.27775,32.35866c-1.94764,-0.85056 -2.95753,-1.53101 -2.95753,-2.49497c0,-1.19078 1.37056,-1.98464 3.53461,-1.98464c2.52472,0 4.7609,0.85056 4.7609,0.85056l1.73124,-4.25279s-1.58697,-1.02067 -6.42,-1.02067c-6.6364,0 -11.25303,3.00531 -11.25303,7.2014c0,2.38156 2.16404,4.19609 5.04944,5.50028c2.30831,1.02067 3.17393,1.75782 3.17393,2.8352c0,1.13408 -1.15416,2.04134 -3.3182,2.04134c-3.17393,0 -6.2036,-1.30419 -6.2036,-1.30419l-1.87551,4.25279s2.81326,1.4743 7.50202,1.4743c6.85281,0 11.75798,-2.66508 11.75798,-7.42821c0,-2.49497 -2.52472,-4.3095 -5.48225,-5.67039zm27.19483,-8.90251c-3.39034,0 -5.98719,1.24749 -8.0791,3.17542l-0.14427,-0.0567l2.95753,-12.02123l-7.57416,0l-7.35775,30.56341l7.57416,0l2.52472,-10.43352c1.00989,-3.96927 3.60674,-6.35084 5.98719,-6.35084c1.73124,0 2.38045,0.90726 2.38045,2.21145c0,0.85056 -0.14427,1.81453 -0.36067,2.66508l-2.88539,11.96452l7.57416,0l2.95753,-12.36145c0.36067,-1.30419 0.57708,-2.8352 0.57708,-3.91257c0.14427,-3.40223 -2.09191,-5.44358 -6.13146,-5.44358zm23.44382,0c-9.16112,0 -15.22045,6.52095 -15.22045,13.72235c0,4.64972 3.60674,8.39218 10.45955,8.39218c9.01685,0 15.07618,-6.35084 15.07618,-13.72235c0,-4.3095 -3.17393,-8.39218 -10.31528,-8.39218zm-3.75101,17.52151c-2.59685,0 -3.67888,-1.75782 -3.67888,-3.91257c0,-3.40223 2.23618,-9.01592 6.42,-9.01592c2.66899,0 3.60674,1.81453 3.60674,3.57235c-0.07213,3.68575 -2.30831,9.35614 -6.34786,9.35614zm33.5427,-17.52151c-5.12157,0 -8.0791,3.57235 -8.0791,3.57235l-0.14427,0l0.43281,-3.23212l-6.70854,0c-0.36067,2.15475 -0.93775,5.44358 -1.51483,7.93855l-5.26584,21.88771l7.57416,0l2.09191,-8.84581l0.14427,0s1.58697,0.79385 4.47236,0.79385c8.94472,0 14.78764,-7.2014 14.78764,-14.4595c0.07213,-4.08268 -2.23618,-7.65503 -7.79056,-7.65503zm-7.28562,17.57821c-1.94764,0 -3.17393,-0.85056 -3.17393,-0.85056l1.29843,-5.61369c0.86562,-3.74246 3.39034,-6.18073 5.98719,-6.18073c2.30831,0 3.02966,1.70112 3.02966,3.28883c0.07213,3.85587 -2.88539,9.35614 -7.14135,9.35614zm25.96854,-26.1405c-2.45258,0 -4.32809,1.53101 -4.32809,3.45894c0,1.75782 1.4427,3.00531 3.60674,3.00531l0.14427,0c2.38045,0 4.40022,-1.24749 4.47236,-3.45894c-0.07213,-1.75782 -1.58697,-3.00531 -3.89528,-3.00531zm-10.60382,30.22318l7.57416,0l5.19371,-21.20726l-7.64629,0l-5.12157,21.20726zm32.1,-21.20726l-5.26584,0l0.28854,-1.02067c0.43281,-2.04134 2.01978,-3.85587 4.54449,-3.85587c1.37056,0 2.45258,0.28352 2.45258,0.28352l1.51483,-4.70642s-1.29843,-0.51034 -4.11169,-0.51034c-2.66899,0 -5.41011,0.62374 -7.42989,1.98464c-2.59685,1.75782 -3.82315,4.25279 -4.40022,6.74776l-0.2164,1.02067l-3.53461,0l-1.08202,4.47961l3.53461,0l-4.18382,16.78436l7.57416,0l4.03955,-16.72765l5.26584,0l1.00989,-4.47961zm18.32225,0s-4.7609,9.41285 -6.92494,14.5729l-0.14427,0c-0.14427,-1.64441 -1.87551,-14.5729 -1.87551,-14.5729l-8.00697,0l4.54449,19.44944c0.14427,0.45363 0.07213,0.68045 -0.14427,1.02067c-0.86562,1.36089 -2.38045,2.66508 -4.11169,3.57235c-1.4427,0.85056 -3.02966,1.36089 -4.32809,1.70112l2.09191,5.04665c1.51483,-0.28352 4.7609,-1.24749 7.42989,-3.23212c3.46247,-2.55168 6.6364,-6.52095 9.95461,-11.85112l9.30539,-15.70698l-7.79056,0z"/>
 </g>
</svg>